<mxfile host="app.diagrams.net" modified="2023-10-21T04:42:38.430Z" agent="Mozilla/5.0 (Windows NT 10.0; Win64; x64) AppleWebKit/537.36 (KHTML, like Gecko) Chrome/116.0.5845.888 YaBrowser/23.9.0.0 Safari/537.36" etag="_MRSAT897d1bqjBeA65i" version="22.0.6" type="device" pages="3">
  <diagram id="Tc9vxIzjaqwmZVmDR85D" name="Страница — 1">
    <mxGraphModel dx="1689" dy="1992" grid="1" gridSize="10" guides="1" tooltips="1" connect="1" arrows="1" fold="1" page="1" pageScale="1" pageWidth="1169" pageHeight="827" math="0" shadow="0">
      <root>
        <mxCell id="0" />
        <mxCell id="1" parent="0" />
        <mxCell id="Iq0CbhZqkcb70wYy-ZxE-1" value="Document" style="swimlane;fontStyle=0;childLayout=stackLayout;horizontal=1;startSize=26;fillColor=none;horizontalStack=0;resizeParent=1;resizeParentMax=0;resizeLast=0;collapsible=1;marginBottom=0;whiteSpace=wrap;html=1;" parent="1" vertex="1">
          <mxGeometry x="70" y="50" width="190" height="286" as="geometry" />
        </mxCell>
        <mxCell id="Iq0CbhZqkcb70wYy-ZxE-2" value="+&amp;nbsp;documentID: Int" style="text;strokeColor=none;fillColor=none;align=left;verticalAlign=top;spacingLeft=4;spacingRight=4;overflow=hidden;rotatable=0;points=[[0,0.5],[1,0.5]];portConstraint=eastwest;whiteSpace=wrap;html=1;" parent="Iq0CbhZqkcb70wYy-ZxE-1" vertex="1">
          <mxGeometry y="26" width="190" height="26" as="geometry" />
        </mxCell>
        <mxCell id="Iq0CbhZqkcb70wYy-ZxE-7" value="+&amp;nbsp;title: String" style="text;strokeColor=none;fillColor=none;align=left;verticalAlign=top;spacingLeft=4;spacingRight=4;overflow=hidden;rotatable=0;points=[[0,0.5],[1,0.5]];portConstraint=eastwest;whiteSpace=wrap;html=1;" parent="Iq0CbhZqkcb70wYy-ZxE-1" vertex="1">
          <mxGeometry y="52" width="190" height="26" as="geometry" />
        </mxCell>
        <mxCell id="Iq0CbhZqkcb70wYy-ZxE-9" value="+ course: Course" style="text;strokeColor=none;fillColor=none;align=left;verticalAlign=top;spacingLeft=4;spacingRight=4;overflow=hidden;rotatable=0;points=[[0,0.5],[1,0.5]];portConstraint=eastwest;whiteSpace=wrap;html=1;" parent="Iq0CbhZqkcb70wYy-ZxE-1" vertex="1">
          <mxGeometry y="78" width="190" height="26" as="geometry" />
        </mxCell>
        <mxCell id="Iq0CbhZqkcb70wYy-ZxE-5" value="+ dateUploaded: Date" style="text;strokeColor=none;fillColor=none;align=left;verticalAlign=top;spacingLeft=4;spacingRight=4;overflow=hidden;rotatable=0;points=[[0,0.5],[1,0.5]];portConstraint=eastwest;whiteSpace=wrap;html=1;" parent="Iq0CbhZqkcb70wYy-ZxE-1" vertex="1">
          <mxGeometry y="104" width="190" height="26" as="geometry" />
        </mxCell>
        <mxCell id="Iq0CbhZqkcb70wYy-ZxE-8" value="+ fileURL: string" style="text;strokeColor=none;fillColor=none;align=left;verticalAlign=top;spacingLeft=4;spacingRight=4;overflow=hidden;rotatable=0;points=[[0,0.5],[1,0.5]];portConstraint=eastwest;whiteSpace=wrap;html=1;" parent="Iq0CbhZqkcb70wYy-ZxE-1" vertex="1">
          <mxGeometry y="130" width="190" height="26" as="geometry" />
        </mxCell>
        <mxCell id="Iq0CbhZqkcb70wYy-ZxE-10" value="+ documentType: DocumentType" style="text;strokeColor=none;fillColor=none;align=left;verticalAlign=top;spacingLeft=4;spacingRight=4;overflow=hidden;rotatable=0;points=[[0,0.5],[1,0.5]];portConstraint=eastwest;whiteSpace=wrap;html=1;" parent="Iq0CbhZqkcb70wYy-ZxE-1" vertex="1">
          <mxGeometry y="156" width="190" height="26" as="geometry" />
        </mxCell>
        <mxCell id="Iq0CbhZqkcb70wYy-ZxE-11" value="+ owner: User" style="text;strokeColor=none;fillColor=none;align=left;verticalAlign=top;spacingLeft=4;spacingRight=4;overflow=hidden;rotatable=0;points=[[0,0.5],[1,0.5]];portConstraint=eastwest;whiteSpace=wrap;html=1;" parent="Iq0CbhZqkcb70wYy-ZxE-1" vertex="1">
          <mxGeometry y="182" width="190" height="26" as="geometry" />
        </mxCell>
        <mxCell id="Iq0CbhZqkcb70wYy-ZxE-3" value="+ version: Int" style="text;strokeColor=none;fillColor=none;align=left;verticalAlign=top;spacingLeft=4;spacingRight=4;overflow=hidden;rotatable=0;points=[[0,0.5],[1,0.5]];portConstraint=eastwest;whiteSpace=wrap;html=1;" parent="Iq0CbhZqkcb70wYy-ZxE-1" vertex="1">
          <mxGeometry y="208" width="190" height="26" as="geometry" />
        </mxCell>
        <mxCell id="Iq0CbhZqkcb70wYy-ZxE-6" value="+ tags: string[]" style="text;strokeColor=none;fillColor=none;align=left;verticalAlign=top;spacingLeft=4;spacingRight=4;overflow=hidden;rotatable=0;points=[[0,0.5],[1,0.5]];portConstraint=eastwest;whiteSpace=wrap;html=1;" parent="Iq0CbhZqkcb70wYy-ZxE-1" vertex="1">
          <mxGeometry y="234" width="190" height="26" as="geometry" />
        </mxCell>
        <mxCell id="Iq0CbhZqkcb70wYy-ZxE-4" value="+ permissions: Permission[]" style="text;strokeColor=none;fillColor=none;align=left;verticalAlign=top;spacingLeft=4;spacingRight=4;overflow=hidden;rotatable=0;points=[[0,0.5],[1,0.5]];portConstraint=eastwest;whiteSpace=wrap;html=1;" parent="Iq0CbhZqkcb70wYy-ZxE-1" vertex="1">
          <mxGeometry y="260" width="190" height="26" as="geometry" />
        </mxCell>
        <mxCell id="Iq0CbhZqkcb70wYy-ZxE-12" value="User" style="swimlane;fontStyle=0;childLayout=stackLayout;horizontal=1;startSize=26;fillColor=none;horizontalStack=0;resizeParent=1;resizeParentMax=0;resizeLast=0;collapsible=1;marginBottom=0;whiteSpace=wrap;html=1;" parent="1" vertex="1">
          <mxGeometry x="380" y="180" width="140" height="130" as="geometry" />
        </mxCell>
        <mxCell id="Iq0CbhZqkcb70wYy-ZxE-13" value="+ userID: Int" style="text;strokeColor=none;fillColor=none;align=left;verticalAlign=top;spacingLeft=4;spacingRight=4;overflow=hidden;rotatable=0;points=[[0,0.5],[1,0.5]];portConstraint=eastwest;whiteSpace=wrap;html=1;" parent="Iq0CbhZqkcb70wYy-ZxE-12" vertex="1">
          <mxGeometry y="26" width="140" height="26" as="geometry" />
        </mxCell>
        <mxCell id="Iq0CbhZqkcb70wYy-ZxE-14" value="+ username: String" style="text;strokeColor=none;fillColor=none;align=left;verticalAlign=top;spacingLeft=4;spacingRight=4;overflow=hidden;rotatable=0;points=[[0,0.5],[1,0.5]];portConstraint=eastwest;whiteSpace=wrap;html=1;" parent="Iq0CbhZqkcb70wYy-ZxE-12" vertex="1">
          <mxGeometry y="52" width="140" height="26" as="geometry" />
        </mxCell>
        <mxCell id="Iq0CbhZqkcb70wYy-ZxE-15" value="+ email: String" style="text;strokeColor=none;fillColor=none;align=left;verticalAlign=top;spacingLeft=4;spacingRight=4;overflow=hidden;rotatable=0;points=[[0,0.5],[1,0.5]];portConstraint=eastwest;whiteSpace=wrap;html=1;" parent="Iq0CbhZqkcb70wYy-ZxE-12" vertex="1">
          <mxGeometry y="78" width="140" height="26" as="geometry" />
        </mxCell>
        <mxCell id="Iq0CbhZqkcb70wYy-ZxE-16" value="+ role: UserRole" style="text;strokeColor=none;fillColor=none;align=left;verticalAlign=top;spacingLeft=4;spacingRight=4;overflow=hidden;rotatable=0;points=[[0,0.5],[1,0.5]];portConstraint=eastwest;whiteSpace=wrap;html=1;" parent="Iq0CbhZqkcb70wYy-ZxE-12" vertex="1">
          <mxGeometry y="104" width="140" height="26" as="geometry" />
        </mxCell>
        <mxCell id="Iq0CbhZqkcb70wYy-ZxE-23" value="Permission" style="swimlane;fontStyle=0;childLayout=stackLayout;horizontal=1;startSize=26;fillColor=none;horizontalStack=0;resizeParent=1;resizeParentMax=0;resizeLast=0;collapsible=1;marginBottom=0;whiteSpace=wrap;html=1;" parent="1" vertex="1">
          <mxGeometry x="595" y="310" width="235" height="104" as="geometry" />
        </mxCell>
        <mxCell id="Iq0CbhZqkcb70wYy-ZxE-24" value="+ permissionID: Int" style="text;strokeColor=none;fillColor=none;align=left;verticalAlign=top;spacingLeft=4;spacingRight=4;overflow=hidden;rotatable=0;points=[[0,0.5],[1,0.5]];portConstraint=eastwest;whiteSpace=wrap;html=1;" parent="Iq0CbhZqkcb70wYy-ZxE-23" vertex="1">
          <mxGeometry y="26" width="235" height="26" as="geometry" />
        </mxCell>
        <mxCell id="Iq0CbhZqkcb70wYy-ZxE-25" value="+ user: User" style="text;strokeColor=none;fillColor=none;align=left;verticalAlign=top;spacingLeft=4;spacingRight=4;overflow=hidden;rotatable=0;points=[[0,0.5],[1,0.5]];portConstraint=eastwest;whiteSpace=wrap;html=1;" parent="Iq0CbhZqkcb70wYy-ZxE-23" vertex="1">
          <mxGeometry y="52" width="235" height="26" as="geometry" />
        </mxCell>
        <mxCell id="Iq0CbhZqkcb70wYy-ZxE-26" value="+ accessLevel: AccessLevel" style="text;strokeColor=none;fillColor=none;align=left;verticalAlign=top;spacingLeft=4;spacingRight=4;overflow=hidden;rotatable=0;points=[[0,0.5],[1,0.5]];portConstraint=eastwest;whiteSpace=wrap;html=1;" parent="Iq0CbhZqkcb70wYy-ZxE-23" vertex="1">
          <mxGeometry y="78" width="235" height="26" as="geometry" />
        </mxCell>
        <mxCell id="Iq0CbhZqkcb70wYy-ZxE-28" value="&lt;p style=&quot;margin:0px;margin-top:4px;text-align:center;text-decoration:underline;&quot;&gt;&lt;b&gt;enum AccessLevel&lt;/b&gt;&lt;/p&gt;&lt;hr&gt;&lt;p style=&quot;margin:0px;margin-left:8px;&quot;&gt;READ&lt;/p&gt;&lt;p style=&quot;margin:0px;margin-left:8px;&quot;&gt;CREATE&lt;/p&gt;&lt;p style=&quot;margin:0px;margin-left:8px;&quot;&gt;MODIFY&lt;/p&gt;&lt;p style=&quot;margin:0px;margin-left:8px;&quot;&gt;DELETE&lt;/p&gt;&lt;p style=&quot;margin:0px;margin-left:8px;&quot;&gt;SHARE&lt;/p&gt;&lt;p style=&quot;margin:0px;margin-left:8px;&quot;&gt;&lt;br&gt;&lt;/p&gt;&lt;p style=&quot;margin:0px;margin-left:8px;&quot;&gt;&lt;br&gt;&lt;/p&gt;" style="verticalAlign=top;align=left;overflow=fill;fontSize=12;fontFamily=Helvetica;html=1;whiteSpace=wrap;" parent="1" vertex="1">
          <mxGeometry x="50" y="380" width="160" height="110" as="geometry" />
        </mxCell>
        <mxCell id="Iq0CbhZqkcb70wYy-ZxE-29" value="" style="edgeStyle=entityRelationEdgeStyle;fontSize=12;html=1;endArrow=ERoneToMany;rounded=0;entryX=1;entryY=0.5;entryDx=0;entryDy=0;exitX=0.005;exitY=0.088;exitDx=0;exitDy=0;exitPerimeter=0;" parent="1" source="Iq0CbhZqkcb70wYy-ZxE-12" target="Iq0CbhZqkcb70wYy-ZxE-11" edge="1">
          <mxGeometry width="100" height="100" relative="1" as="geometry">
            <mxPoint x="230" y="330" as="sourcePoint" />
            <mxPoint x="330" y="230" as="targetPoint" />
          </mxGeometry>
        </mxCell>
        <mxCell id="Iq0CbhZqkcb70wYy-ZxE-30" value="" style="edgeStyle=entityRelationEdgeStyle;fontSize=12;html=1;endArrow=ERoneToMany;rounded=0;entryX=1;entryY=0.5;entryDx=0;entryDy=0;exitX=0;exitY=0.5;exitDx=0;exitDy=0;" parent="1" source="SlyVflsgrESWx7qmd11G-116" target="Iq0CbhZqkcb70wYy-ZxE-9" edge="1">
          <mxGeometry width="100" height="100" relative="1" as="geometry">
            <mxPoint x="358.39999999999964" y="43.36999999999989" as="sourcePoint" />
            <mxPoint x="360" y="230" as="targetPoint" />
          </mxGeometry>
        </mxCell>
        <mxCell id="Iq0CbhZqkcb70wYy-ZxE-31" value="" style="edgeStyle=entityRelationEdgeStyle;fontSize=12;html=1;endArrow=ERoneToMany;rounded=0;exitX=1.03;exitY=0.075;exitDx=0;exitDy=0;exitPerimeter=0;entryX=0;entryY=0.5;entryDx=0;entryDy=0;" parent="1" source="Iq0CbhZqkcb70wYy-ZxE-12" target="Iq0CbhZqkcb70wYy-ZxE-25" edge="1">
          <mxGeometry width="100" height="100" relative="1" as="geometry">
            <mxPoint x="620" y="430" as="sourcePoint" />
            <mxPoint x="650" y="370" as="targetPoint" />
          </mxGeometry>
        </mxCell>
        <mxCell id="Iq0CbhZqkcb70wYy-ZxE-32" value="" style="edgeStyle=entityRelationEdgeStyle;fontSize=12;html=1;endArrow=ERoneToMany;rounded=0;entryX=-0.02;entryY=0.18;entryDx=0;entryDy=0;entryPerimeter=0;exitX=1;exitY=0.5;exitDx=0;exitDy=0;" parent="1" source="Iq0CbhZqkcb70wYy-ZxE-4" target="Iq0CbhZqkcb70wYy-ZxE-23" edge="1">
          <mxGeometry width="100" height="100" relative="1" as="geometry">
            <mxPoint x="350" y="530" as="sourcePoint" />
            <mxPoint x="450" y="430" as="targetPoint" />
          </mxGeometry>
        </mxCell>
        <mxCell id="e20SZqyJfDjcsOjrTKav-1" value="&lt;p style=&quot;margin:0px;margin-top:4px;text-align:center;text-decoration:underline;&quot;&gt;&lt;b&gt;enum DocumentType&lt;/b&gt;&lt;/p&gt;&lt;hr&gt;&lt;p style=&quot;margin:0px;margin-left:8px;&quot;&gt;DOCX&lt;/p&gt;&lt;p style=&quot;margin:0px;margin-left:8px;&quot;&gt;PDF&lt;/p&gt;&lt;p style=&quot;margin:0px;margin-left:8px;&quot;&gt;&lt;span style=&quot;background-color: initial;&quot;&gt;PPTX&lt;/span&gt;&lt;br&gt;&lt;/p&gt;&lt;p style=&quot;margin:0px;margin-left:8px;&quot;&gt;&lt;span style=&quot;background-color: initial;&quot;&gt;ZIP&lt;/span&gt;&lt;/p&gt;" style="verticalAlign=top;align=left;overflow=fill;fontSize=12;fontFamily=Helvetica;html=1;whiteSpace=wrap;" parent="1" vertex="1">
          <mxGeometry x="250" y="380" width="160" height="100" as="geometry" />
        </mxCell>
        <mxCell id="aAxUZjyfkFkijgwqoEyc-3" value="" style="edgeStyle=entityRelationEdgeStyle;fontSize=12;html=1;endArrow=ERoneToMany;rounded=0;entryX=-0.007;entryY=0.069;entryDx=0;entryDy=0;exitX=1;exitY=0.5;exitDx=0;exitDy=0;entryPerimeter=0;" parent="1" source="SlyVflsgrESWx7qmd11G-120" target="SlyVflsgrESWx7qmd11G-62" edge="1">
          <mxGeometry width="100" height="100" relative="1" as="geometry">
            <mxPoint x="560" y="141" as="sourcePoint" />
            <mxPoint x="670" y="180.5" as="targetPoint" />
          </mxGeometry>
        </mxCell>
        <mxCell id="SlyVflsgrESWx7qmd11G-62" value="Student" style="swimlane;html=1;fontStyle=0;childLayout=stackLayout;horizontal=1;startSize=26;fillColor=none;horizontalStack=0;resizeParent=1;resizeLast=0;collapsible=1;marginBottom=0;swimlaneFillColor=#ffffff;rounded=0;shadow=0;comic=0;labelBackgroundColor=none;strokeWidth=1;fontFamily=Verdana;fontSize=10;align=center;" vertex="1" parent="1">
          <mxGeometry x="1260" y="-55" width="320" height="220" as="geometry" />
        </mxCell>
        <mxCell id="SlyVflsgrESWx7qmd11G-63" value="+ studentID: Int" style="text;html=1;strokeColor=none;fillColor=none;align=left;verticalAlign=top;spacingLeft=4;spacingRight=4;whiteSpace=wrap;overflow=hidden;rotatable=0;points=[[0,0.5],[1,0.5]];portConstraint=eastwest;" vertex="1" parent="SlyVflsgrESWx7qmd11G-62">
          <mxGeometry y="26" width="320" height="26" as="geometry" />
        </mxCell>
        <mxCell id="SlyVflsgrESWx7qmd11G-64" value="+ firstName: String" style="text;html=1;strokeColor=none;fillColor=none;align=left;verticalAlign=top;spacingLeft=4;spacingRight=4;whiteSpace=wrap;overflow=hidden;rotatable=0;points=[[0,0.5],[1,0.5]];portConstraint=eastwest;" vertex="1" parent="SlyVflsgrESWx7qmd11G-62">
          <mxGeometry y="52" width="320" height="26" as="geometry" />
        </mxCell>
        <mxCell id="SlyVflsgrESWx7qmd11G-65" value="+&amp;nbsp;debts: List&amp;lt;Debt&amp;gt;" style="text;html=1;strokeColor=none;fillColor=none;align=left;verticalAlign=top;spacingLeft=4;spacingRight=4;whiteSpace=wrap;overflow=hidden;rotatable=0;points=[[0,0.5],[1,0.5]];portConstraint=eastwest;" vertex="1" parent="SlyVflsgrESWx7qmd11G-62">
          <mxGeometry y="78" width="320" height="26" as="geometry" />
        </mxCell>
        <mxCell id="SlyVflsgrESWx7qmd11G-66" value="+ lastName: String" style="text;html=1;strokeColor=none;fillColor=none;align=left;verticalAlign=top;spacingLeft=4;spacingRight=4;whiteSpace=wrap;overflow=hidden;rotatable=0;points=[[0,0.5],[1,0.5]];portConstraint=eastwest;" vertex="1" parent="SlyVflsgrESWx7qmd11G-62">
          <mxGeometry y="104" width="320" height="26" as="geometry" />
        </mxCell>
        <mxCell id="SlyVflsgrESWx7qmd11G-67" value="+&amp;nbsp;dateOfBirth: Date" style="text;html=1;strokeColor=none;fillColor=none;align=left;verticalAlign=top;spacingLeft=4;spacingRight=4;whiteSpace=wrap;overflow=hidden;rotatable=0;points=[[0,0.5],[1,0.5]];portConstraint=eastwest;" vertex="1" parent="SlyVflsgrESWx7qmd11G-62">
          <mxGeometry y="130" width="320" height="26" as="geometry" />
        </mxCell>
        <mxCell id="SlyVflsgrESWx7qmd11G-68" value="+&amp;nbsp;contactInformation : String" style="text;html=1;strokeColor=none;fillColor=none;align=left;verticalAlign=top;spacingLeft=4;spacingRight=4;whiteSpace=wrap;overflow=hidden;rotatable=0;points=[[0,0.5],[1,0.5]];portConstraint=eastwest;" vertex="1" parent="SlyVflsgrESWx7qmd11G-62">
          <mxGeometry y="156" width="320" height="26" as="geometry" />
        </mxCell>
        <mxCell id="SlyVflsgrESWx7qmd11G-69" value="+&amp;nbsp;enrolledCourses : List&amp;lt;Course&amp;gt;" style="text;html=1;strokeColor=none;fillColor=none;align=left;verticalAlign=top;spacingLeft=4;spacingRight=4;whiteSpace=wrap;overflow=hidden;rotatable=0;points=[[0,0.5],[1,0.5]];portConstraint=eastwest;" vertex="1" parent="SlyVflsgrESWx7qmd11G-62">
          <mxGeometry y="182" width="320" height="26" as="geometry" />
        </mxCell>
        <mxCell id="SlyVflsgrESWx7qmd11G-70" value="enum UserRole" style="swimlane;fontStyle=0;childLayout=stackLayout;horizontal=1;startSize=30;horizontalStack=0;resizeParent=1;resizeParentMax=0;resizeLast=0;collapsible=1;marginBottom=0;whiteSpace=wrap;html=1;" vertex="1" parent="1">
          <mxGeometry x="470" y="430" width="125" height="120" as="geometry" />
        </mxCell>
        <mxCell id="SlyVflsgrESWx7qmd11G-71" value="TEACHER" style="text;strokeColor=none;fillColor=none;align=left;verticalAlign=middle;spacingLeft=4;spacingRight=4;overflow=hidden;points=[[0,0.5],[1,0.5]];portConstraint=eastwest;rotatable=0;whiteSpace=wrap;html=1;" vertex="1" parent="SlyVflsgrESWx7qmd11G-70">
          <mxGeometry y="30" width="125" height="30" as="geometry" />
        </mxCell>
        <mxCell id="SlyVflsgrESWx7qmd11G-72" value="STUDENT" style="text;strokeColor=none;fillColor=none;align=left;verticalAlign=middle;spacingLeft=4;spacingRight=4;overflow=hidden;points=[[0,0.5],[1,0.5]];portConstraint=eastwest;rotatable=0;whiteSpace=wrap;html=1;" vertex="1" parent="SlyVflsgrESWx7qmd11G-70">
          <mxGeometry y="60" width="125" height="30" as="geometry" />
        </mxCell>
        <mxCell id="SlyVflsgrESWx7qmd11G-73" value="ADMINSTRATOR" style="text;strokeColor=none;fillColor=none;align=left;verticalAlign=middle;spacingLeft=4;spacingRight=4;overflow=hidden;points=[[0,0.5],[1,0.5]];portConstraint=eastwest;rotatable=0;whiteSpace=wrap;html=1;" vertex="1" parent="SlyVflsgrESWx7qmd11G-70">
          <mxGeometry y="90" width="125" height="30" as="geometry" />
        </mxCell>
        <mxCell id="SlyVflsgrESWx7qmd11G-81" value="Debt" style="swimlane;html=1;fontStyle=0;childLayout=stackLayout;horizontal=1;startSize=26;fillColor=none;horizontalStack=0;resizeParent=1;resizeLast=0;collapsible=1;marginBottom=0;swimlaneFillColor=#ffffff;rounded=0;shadow=0;comic=0;labelBackgroundColor=none;strokeWidth=1;fontFamily=Verdana;fontSize=10;align=center;" vertex="1" parent="1">
          <mxGeometry x="920" y="240" width="260" height="182" as="geometry" />
        </mxCell>
        <mxCell id="SlyVflsgrESWx7qmd11G-82" value="+ debtID: Int" style="text;html=1;strokeColor=none;fillColor=none;align=left;verticalAlign=top;spacingLeft=4;spacingRight=4;whiteSpace=wrap;overflow=hidden;rotatable=0;points=[[0,0.5],[1,0.5]];portConstraint=eastwest;" vertex="1" parent="SlyVflsgrESWx7qmd11G-81">
          <mxGeometry y="26" width="260" height="26" as="geometry" />
        </mxCell>
        <mxCell id="SlyVflsgrESWx7qmd11G-83" value="+ dueDate: Date" style="text;html=1;strokeColor=none;fillColor=none;align=left;verticalAlign=top;spacingLeft=4;spacingRight=4;whiteSpace=wrap;overflow=hidden;rotatable=0;points=[[0,0.5],[1,0.5]];portConstraint=eastwest;" vertex="1" parent="SlyVflsgrESWx7qmd11G-81">
          <mxGeometry y="52" width="260" height="26" as="geometry" />
        </mxCell>
        <mxCell id="SlyVflsgrESWx7qmd11G-84" value="+ amount: Decimal" style="text;html=1;strokeColor=none;fillColor=none;align=left;verticalAlign=top;spacingLeft=4;spacingRight=4;whiteSpace=wrap;overflow=hidden;rotatable=0;points=[[0,0.5],[1,0.5]];portConstraint=eastwest;" vertex="1" parent="SlyVflsgrESWx7qmd11G-81">
          <mxGeometry y="78" width="260" height="26" as="geometry" />
        </mxCell>
        <mxCell id="SlyVflsgrESWx7qmd11G-85" value="+&amp;nbsp;student: Student" style="text;html=1;strokeColor=none;fillColor=none;align=left;verticalAlign=top;spacingLeft=4;spacingRight=4;whiteSpace=wrap;overflow=hidden;rotatable=0;points=[[0,0.5],[1,0.5]];portConstraint=eastwest;" vertex="1" parent="SlyVflsgrESWx7qmd11G-81">
          <mxGeometry y="104" width="260" height="26" as="geometry" />
        </mxCell>
        <mxCell id="SlyVflsgrESWx7qmd11G-86" value="+&amp;nbsp;course: Course" style="text;html=1;strokeColor=none;fillColor=none;align=left;verticalAlign=top;spacingLeft=4;spacingRight=4;whiteSpace=wrap;overflow=hidden;rotatable=0;points=[[0,0.5],[1,0.5]];portConstraint=eastwest;" vertex="1" parent="SlyVflsgrESWx7qmd11G-81">
          <mxGeometry y="130" width="260" height="26" as="geometry" />
        </mxCell>
        <mxCell id="SlyVflsgrESWx7qmd11G-87" value="+&amp;nbsp;statusDebt: StatusDebt" style="text;html=1;strokeColor=none;fillColor=none;align=left;verticalAlign=top;spacingLeft=4;spacingRight=4;whiteSpace=wrap;overflow=hidden;rotatable=0;points=[[0,0.5],[1,0.5]];portConstraint=eastwest;" vertex="1" parent="SlyVflsgrESWx7qmd11G-81">
          <mxGeometry y="156" width="260" height="26" as="geometry" />
        </mxCell>
        <mxCell id="SlyVflsgrESWx7qmd11G-88" value="enum StatusDebt" style="swimlane;fontStyle=0;childLayout=stackLayout;horizontal=1;startSize=30;horizontalStack=0;resizeParent=1;resizeParentMax=0;resizeLast=0;collapsible=1;marginBottom=0;whiteSpace=wrap;html=1;" vertex="1" parent="1">
          <mxGeometry x="1520" y="240" width="125" height="90" as="geometry" />
        </mxCell>
        <mxCell id="SlyVflsgrESWx7qmd11G-89" value="PAID" style="text;strokeColor=none;fillColor=none;align=left;verticalAlign=middle;spacingLeft=4;spacingRight=4;overflow=hidden;points=[[0,0.5],[1,0.5]];portConstraint=eastwest;rotatable=0;whiteSpace=wrap;html=1;" vertex="1" parent="SlyVflsgrESWx7qmd11G-88">
          <mxGeometry y="30" width="125" height="30" as="geometry" />
        </mxCell>
        <mxCell id="SlyVflsgrESWx7qmd11G-90" value="UNPAID" style="text;strokeColor=none;fillColor=none;align=left;verticalAlign=middle;spacingLeft=4;spacingRight=4;overflow=hidden;points=[[0,0.5],[1,0.5]];portConstraint=eastwest;rotatable=0;whiteSpace=wrap;html=1;" vertex="1" parent="SlyVflsgrESWx7qmd11G-88">
          <mxGeometry y="60" width="125" height="30" as="geometry" />
        </mxCell>
        <mxCell id="SlyVflsgrESWx7qmd11G-91" value="enum StatusPayment" style="swimlane;fontStyle=0;childLayout=stackLayout;horizontal=1;startSize=30;horizontalStack=0;resizeParent=1;resizeParentMax=0;resizeLast=0;collapsible=1;marginBottom=0;whiteSpace=wrap;html=1;" vertex="1" parent="1">
          <mxGeometry x="1357.5" y="225" width="125" height="120" as="geometry" />
        </mxCell>
        <mxCell id="SlyVflsgrESWx7qmd11G-92" value="Successful" style="text;strokeColor=none;fillColor=none;align=left;verticalAlign=middle;spacingLeft=4;spacingRight=4;overflow=hidden;points=[[0,0.5],[1,0.5]];portConstraint=eastwest;rotatable=0;whiteSpace=wrap;html=1;" vertex="1" parent="SlyVflsgrESWx7qmd11G-91">
          <mxGeometry y="30" width="125" height="30" as="geometry" />
        </mxCell>
        <mxCell id="SlyVflsgrESWx7qmd11G-93" value="Failed" style="text;strokeColor=none;fillColor=none;align=left;verticalAlign=middle;spacingLeft=4;spacingRight=4;overflow=hidden;points=[[0,0.5],[1,0.5]];portConstraint=eastwest;rotatable=0;whiteSpace=wrap;html=1;" vertex="1" parent="SlyVflsgrESWx7qmd11G-91">
          <mxGeometry y="60" width="125" height="30" as="geometry" />
        </mxCell>
        <mxCell id="SlyVflsgrESWx7qmd11G-124" value="InProcessing" style="text;strokeColor=none;fillColor=none;align=left;verticalAlign=middle;spacingLeft=4;spacingRight=4;overflow=hidden;points=[[0,0.5],[1,0.5]];portConstraint=eastwest;rotatable=0;whiteSpace=wrap;html=1;" vertex="1" parent="SlyVflsgrESWx7qmd11G-91">
          <mxGeometry y="90" width="125" height="30" as="geometry" />
        </mxCell>
        <mxCell id="SlyVflsgrESWx7qmd11G-94" value="Semester" style="swimlane;html=1;fontStyle=0;childLayout=stackLayout;horizontal=1;startSize=26;fillColor=none;horizontalStack=0;resizeParent=1;resizeLast=0;collapsible=1;marginBottom=0;swimlaneFillColor=#ffffff;rounded=0;shadow=0;comic=0;labelBackgroundColor=none;strokeWidth=1;fontFamily=Verdana;fontSize=10;align=center;" vertex="1" parent="1">
          <mxGeometry x="830" y="30" width="260" height="182" as="geometry" />
        </mxCell>
        <mxCell id="SlyVflsgrESWx7qmd11G-95" value="+ semesterID: Int" style="text;html=1;strokeColor=none;fillColor=none;align=left;verticalAlign=top;spacingLeft=4;spacingRight=4;whiteSpace=wrap;overflow=hidden;rotatable=0;points=[[0,0.5],[1,0.5]];portConstraint=eastwest;" vertex="1" parent="SlyVflsgrESWx7qmd11G-94">
          <mxGeometry y="26" width="260" height="26" as="geometry" />
        </mxCell>
        <mxCell id="SlyVflsgrESWx7qmd11G-96" value="+ semerterNumber: Int" style="text;html=1;strokeColor=none;fillColor=none;align=left;verticalAlign=top;spacingLeft=4;spacingRight=4;whiteSpace=wrap;overflow=hidden;rotatable=0;points=[[0,0.5],[1,0.5]];portConstraint=eastwest;" vertex="1" parent="SlyVflsgrESWx7qmd11G-94">
          <mxGeometry y="52" width="260" height="26" as="geometry" />
        </mxCell>
        <mxCell id="SlyVflsgrESWx7qmd11G-97" value="+ year: Int" style="text;html=1;strokeColor=none;fillColor=none;align=left;verticalAlign=top;spacingLeft=4;spacingRight=4;whiteSpace=wrap;overflow=hidden;rotatable=0;points=[[0,0.5],[1,0.5]];portConstraint=eastwest;" vertex="1" parent="SlyVflsgrESWx7qmd11G-94">
          <mxGeometry y="78" width="260" height="26" as="geometry" />
        </mxCell>
        <mxCell id="SlyVflsgrESWx7qmd11G-98" value="+&amp;nbsp;courses: List&amp;lt;Course&amp;gt;" style="text;html=1;strokeColor=none;fillColor=none;align=left;verticalAlign=top;spacingLeft=4;spacingRight=4;whiteSpace=wrap;overflow=hidden;rotatable=0;points=[[0,0.5],[1,0.5]];portConstraint=eastwest;" vertex="1" parent="SlyVflsgrESWx7qmd11G-94">
          <mxGeometry y="104" width="260" height="26" as="geometry" />
        </mxCell>
        <mxCell id="SlyVflsgrESWx7qmd11G-99" value="+&amp;nbsp;enrolledStudents : List&amp;lt;Student&amp;gt;" style="text;html=1;strokeColor=none;fillColor=none;align=left;verticalAlign=top;spacingLeft=4;spacingRight=4;whiteSpace=wrap;overflow=hidden;rotatable=0;points=[[0,0.5],[1,0.5]];portConstraint=eastwest;" vertex="1" parent="SlyVflsgrESWx7qmd11G-94">
          <mxGeometry y="130" width="260" height="26" as="geometry" />
        </mxCell>
        <mxCell id="SlyVflsgrESWx7qmd11G-101" value="Payment" style="swimlane;html=1;fontStyle=0;childLayout=stackLayout;horizontal=1;startSize=26;fillColor=none;horizontalStack=0;resizeParent=1;resizeLast=0;collapsible=1;marginBottom=0;swimlaneFillColor=#ffffff;rounded=0;shadow=0;comic=0;labelBackgroundColor=none;strokeWidth=1;fontFamily=Verdana;fontSize=10;align=center;" vertex="1" parent="1">
          <mxGeometry x="1660" y="-41" width="260" height="192" as="geometry" />
        </mxCell>
        <mxCell id="SlyVflsgrESWx7qmd11G-102" value="+&amp;nbsp;paymentID : Int" style="text;html=1;strokeColor=none;fillColor=none;align=left;verticalAlign=top;spacingLeft=4;spacingRight=4;whiteSpace=wrap;overflow=hidden;rotatable=0;points=[[0,0.5],[1,0.5]];portConstraint=eastwest;" vertex="1" parent="SlyVflsgrESWx7qmd11G-101">
          <mxGeometry y="26" width="260" height="28" as="geometry" />
        </mxCell>
        <mxCell id="SlyVflsgrESWx7qmd11G-103" value="+ paymentDate : Date" style="text;html=1;strokeColor=none;fillColor=none;align=left;verticalAlign=top;spacingLeft=4;spacingRight=4;whiteSpace=wrap;overflow=hidden;rotatable=0;points=[[0,0.5],[1,0.5]];portConstraint=eastwest;" vertex="1" parent="SlyVflsgrESWx7qmd11G-101">
          <mxGeometry y="54" width="260" height="28" as="geometry" />
        </mxCell>
        <mxCell id="SlyVflsgrESWx7qmd11G-104" value="+ amount : Decimal&amp;nbsp;" style="text;html=1;strokeColor=none;fillColor=none;align=left;verticalAlign=top;spacingLeft=4;spacingRight=4;whiteSpace=wrap;overflow=hidden;rotatable=0;points=[[0,0.5],[1,0.5]];portConstraint=eastwest;" vertex="1" parent="SlyVflsgrESWx7qmd11G-101">
          <mxGeometry y="82" width="260" height="26" as="geometry" />
        </mxCell>
        <mxCell id="SlyVflsgrESWx7qmd11G-105" value="+ statusPayment: StatusPayment" style="text;html=1;strokeColor=none;fillColor=none;align=left;verticalAlign=top;spacingLeft=4;spacingRight=4;whiteSpace=wrap;overflow=hidden;rotatable=0;points=[[0,0.5],[1,0.5]];portConstraint=eastwest;" vertex="1" parent="SlyVflsgrESWx7qmd11G-101">
          <mxGeometry y="108" width="260" height="28" as="geometry" />
        </mxCell>
        <mxCell id="SlyVflsgrESWx7qmd11G-106" value="+ student: Student" style="text;html=1;strokeColor=none;fillColor=none;align=left;verticalAlign=top;spacingLeft=4;spacingRight=4;whiteSpace=wrap;overflow=hidden;rotatable=0;points=[[0,0.5],[1,0.5]];portConstraint=eastwest;" vertex="1" parent="SlyVflsgrESWx7qmd11G-101">
          <mxGeometry y="136" width="260" height="28" as="geometry" />
        </mxCell>
        <mxCell id="SlyVflsgrESWx7qmd11G-107" value="+ typeOfPay : TypeOfPay" style="text;html=1;strokeColor=none;fillColor=none;align=left;verticalAlign=top;spacingLeft=4;spacingRight=4;whiteSpace=wrap;overflow=hidden;rotatable=0;points=[[0,0.5],[1,0.5]];portConstraint=eastwest;" vertex="1" parent="SlyVflsgrESWx7qmd11G-101">
          <mxGeometry y="164" width="260" height="28" as="geometry" />
        </mxCell>
        <mxCell id="SlyVflsgrESWx7qmd11G-108" value="" style="edgeStyle=entityRelationEdgeStyle;fontSize=12;html=1;endArrow=ERoneToMany;rounded=0;exitX=1;exitY=0.5;exitDx=0;exitDy=0;entryX=0;entryY=0.5;entryDx=0;entryDy=0;" edge="1" parent="1" source="SlyVflsgrESWx7qmd11G-118" target="SlyVflsgrESWx7qmd11G-86">
          <mxGeometry width="100" height="100" relative="1" as="geometry">
            <mxPoint x="1060" y="547" as="sourcePoint" />
            <mxPoint x="1390" y="467" as="targetPoint" />
          </mxGeometry>
        </mxCell>
        <mxCell id="SlyVflsgrESWx7qmd11G-109" value="" style="edgeStyle=entityRelationEdgeStyle;fontSize=12;html=1;endArrow=ERoneToMany;rounded=0;entryX=0;entryY=0.5;entryDx=0;entryDy=0;exitX=1;exitY=0.5;exitDx=0;exitDy=0;" edge="1" parent="1" source="SlyVflsgrESWx7qmd11G-63" target="SlyVflsgrESWx7qmd11G-106">
          <mxGeometry width="100" height="100" relative="1" as="geometry">
            <mxPoint x="1220" y="547" as="sourcePoint" />
            <mxPoint x="1320" y="447" as="targetPoint" />
          </mxGeometry>
        </mxCell>
        <mxCell id="SlyVflsgrESWx7qmd11G-110" value="" style="edgeStyle=entityRelationEdgeStyle;fontSize=12;html=1;endArrow=ERoneToMany;rounded=0;exitX=1;exitY=0.5;exitDx=0;exitDy=0;entryX=0;entryY=0.5;entryDx=0;entryDy=0;" edge="1" parent="1" source="SlyVflsgrESWx7qmd11G-116" target="SlyVflsgrESWx7qmd11G-95">
          <mxGeometry width="100" height="100" relative="1" as="geometry">
            <mxPoint x="1220" y="547" as="sourcePoint" />
            <mxPoint x="880" y="607" as="targetPoint" />
          </mxGeometry>
        </mxCell>
        <mxCell id="SlyVflsgrESWx7qmd11G-111" value="" style="edgeStyle=entityRelationEdgeStyle;fontSize=12;html=1;endArrow=ERoneToMany;rounded=0;exitX=0;exitY=0.5;exitDx=0;exitDy=0;entryX=1;entryY=0.5;entryDx=0;entryDy=0;" edge="1" parent="1" source="SlyVflsgrESWx7qmd11G-63" target="SlyVflsgrESWx7qmd11G-99">
          <mxGeometry width="100" height="100" relative="1" as="geometry">
            <mxPoint x="1170" y="195" as="sourcePoint" />
            <mxPoint x="1370" y="447" as="targetPoint" />
          </mxGeometry>
        </mxCell>
        <mxCell id="SlyVflsgrESWx7qmd11G-112" value="" style="edgeStyle=entityRelationEdgeStyle;fontSize=12;html=1;endArrow=ERoneToMany;rounded=0;exitX=0;exitY=0.5;exitDx=0;exitDy=0;entryX=1;entryY=0.5;entryDx=0;entryDy=0;" edge="1" parent="1" source="SlyVflsgrESWx7qmd11G-63" target="SlyVflsgrESWx7qmd11G-85">
          <mxGeometry width="100" height="100" relative="1" as="geometry">
            <mxPoint x="1300" y="188" as="sourcePoint" />
            <mxPoint x="1160" y="410" as="targetPoint" />
          </mxGeometry>
        </mxCell>
        <mxCell id="SlyVflsgrESWx7qmd11G-113" value="enum TypeOfPay" style="swimlane;fontStyle=0;childLayout=stackLayout;horizontal=1;startSize=30;horizontalStack=0;resizeParent=1;resizeParentMax=0;resizeLast=0;collapsible=1;marginBottom=0;whiteSpace=wrap;html=1;" vertex="1" parent="1">
          <mxGeometry x="1520" y="354" width="125" height="90" as="geometry" />
        </mxCell>
        <mxCell id="SlyVflsgrESWx7qmd11G-114" value="DebitCard&lt;br&gt;MobilePayment&lt;br&gt;CryptoCurrency&lt;br&gt;Other" style="text;strokeColor=none;fillColor=none;align=left;verticalAlign=middle;spacingLeft=4;spacingRight=4;overflow=hidden;points=[[0,0.5],[1,0.5]];portConstraint=eastwest;rotatable=0;whiteSpace=wrap;html=1;" vertex="1" parent="SlyVflsgrESWx7qmd11G-113">
          <mxGeometry y="30" width="125" height="60" as="geometry" />
        </mxCell>
        <mxCell id="SlyVflsgrESWx7qmd11G-115" value="Course" style="swimlane;html=1;fontStyle=0;childLayout=stackLayout;horizontal=1;startSize=26;fillColor=none;horizontalStack=0;resizeParent=1;resizeLast=0;collapsible=1;marginBottom=0;swimlaneFillColor=#ffffff;rounded=0;shadow=0;comic=0;labelBackgroundColor=none;strokeWidth=1;fontFamily=Verdana;fontSize=10;align=center;" vertex="1" parent="1">
          <mxGeometry x="370" y="-130" width="260" height="208" as="geometry" />
        </mxCell>
        <mxCell id="SlyVflsgrESWx7qmd11G-116" value="+ courseID: Int" style="text;html=1;strokeColor=none;fillColor=none;align=left;verticalAlign=top;spacingLeft=4;spacingRight=4;whiteSpace=wrap;overflow=hidden;rotatable=0;points=[[0,0.5],[1,0.5]];portConstraint=eastwest;" vertex="1" parent="SlyVflsgrESWx7qmd11G-115">
          <mxGeometry y="26" width="260" height="26" as="geometry" />
        </mxCell>
        <mxCell id="SlyVflsgrESWx7qmd11G-117" value="+&amp;nbsp;name: String" style="text;html=1;strokeColor=none;fillColor=none;align=left;verticalAlign=top;spacingLeft=4;spacingRight=4;whiteSpace=wrap;overflow=hidden;rotatable=0;points=[[0,0.5],[1,0.5]];portConstraint=eastwest;" vertex="1" parent="SlyVflsgrESWx7qmd11G-115">
          <mxGeometry y="52" width="260" height="26" as="geometry" />
        </mxCell>
        <mxCell id="SlyVflsgrESWx7qmd11G-118" value="+&amp;nbsp;debts: List&amp;lt;Debt&amp;gt;" style="text;html=1;strokeColor=none;fillColor=none;align=left;verticalAlign=top;spacingLeft=4;spacingRight=4;whiteSpace=wrap;overflow=hidden;rotatable=0;points=[[0,0.5],[1,0.5]];portConstraint=eastwest;" vertex="1" parent="SlyVflsgrESWx7qmd11G-115">
          <mxGeometry y="78" width="260" height="26" as="geometry" />
        </mxCell>
        <mxCell id="SlyVflsgrESWx7qmd11G-119" value="+ description: String" style="text;html=1;strokeColor=none;fillColor=none;align=left;verticalAlign=top;spacingLeft=4;spacingRight=4;whiteSpace=wrap;overflow=hidden;rotatable=0;points=[[0,0.5],[1,0.5]];portConstraint=eastwest;" vertex="1" parent="SlyVflsgrESWx7qmd11G-115">
          <mxGeometry y="104" width="260" height="26" as="geometry" />
        </mxCell>
        <mxCell id="SlyVflsgrESWx7qmd11G-122" value="+ instructor: User" style="text;strokeColor=none;fillColor=none;align=left;verticalAlign=top;spacingLeft=4;spacingRight=4;overflow=hidden;rotatable=0;points=[[0,0.5],[1,0.5]];portConstraint=eastwest;whiteSpace=wrap;html=1;" vertex="1" parent="SlyVflsgrESWx7qmd11G-115">
          <mxGeometry y="130" width="260" height="26" as="geometry" />
        </mxCell>
        <mxCell id="SlyVflsgrESWx7qmd11G-120" value="+&amp;nbsp;enrolledStudents : List&amp;lt;Student&amp;gt;" style="text;html=1;strokeColor=none;fillColor=none;align=left;verticalAlign=top;spacingLeft=4;spacingRight=4;whiteSpace=wrap;overflow=hidden;rotatable=0;points=[[0,0.5],[1,0.5]];portConstraint=eastwest;" vertex="1" parent="SlyVflsgrESWx7qmd11G-115">
          <mxGeometry y="156" width="260" height="26" as="geometry" />
        </mxCell>
        <mxCell id="SlyVflsgrESWx7qmd11G-121" value="+&amp;nbsp;userRole: UserRole" style="text;html=1;strokeColor=none;fillColor=none;align=left;verticalAlign=top;spacingLeft=4;spacingRight=4;whiteSpace=wrap;overflow=hidden;rotatable=0;points=[[0,0.5],[1,0.5]];portConstraint=eastwest;" vertex="1" parent="SlyVflsgrESWx7qmd11G-115">
          <mxGeometry y="182" width="260" height="26" as="geometry" />
        </mxCell>
      </root>
    </mxGraphModel>
  </diagram>
  <diagram id="JzrRPEl0UCR5Kjg2wThR" name="Страница — 2">
    <mxGraphModel dx="929" dy="641" grid="1" gridSize="10" guides="1" tooltips="1" connect="1" arrows="1" fold="1" page="1" pageScale="1" pageWidth="1169" pageHeight="827" math="0" shadow="0">
      <root>
        <mxCell id="0" />
        <mxCell id="1" parent="0" />
        <mxCell id="RRCfo7z8MlWNH820GbBb-1" value="" style="shape=umlLifeline;perimeter=lifelinePerimeter;whiteSpace=wrap;html=1;container=1;dropTarget=0;collapsible=0;recursiveResize=0;outlineConnect=0;portConstraint=eastwest;newEdgeStyle={&quot;curved&quot;:0,&quot;rounded&quot;:0};participant=umlActor;" parent="1" vertex="1">
          <mxGeometry x="90" y="264" width="20" height="536" as="geometry" />
        </mxCell>
        <mxCell id="AOPxUWEDdUpyl5ueg-hB-31" value="" style="html=1;points=[[0,0,0,0,5],[0,1,0,0,-5],[1,0,0,0,5],[1,1,0,0,-5]];perimeter=orthogonalPerimeter;outlineConnect=0;targetShapes=umlLifeline;portConstraint=eastwest;newEdgeStyle={&quot;curved&quot;:0,&quot;rounded&quot;:0};" parent="RRCfo7z8MlWNH820GbBb-1" vertex="1">
          <mxGeometry x="5" y="126" width="10" height="20" as="geometry" />
        </mxCell>
        <mxCell id="RRCfo7z8MlWNH820GbBb-2" value="" style="shape=umlLifeline;perimeter=lifelinePerimeter;whiteSpace=wrap;html=1;container=1;dropTarget=0;collapsible=0;recursiveResize=0;outlineConnect=0;portConstraint=eastwest;newEdgeStyle={&quot;curved&quot;:0,&quot;rounded&quot;:0};participant=umlActor;" parent="1" vertex="1">
          <mxGeometry x="170" y="264" width="20" height="546" as="geometry" />
        </mxCell>
        <mxCell id="AOPxUWEDdUpyl5ueg-hB-29" value="" style="html=1;points=[[0,0,0,0,5],[0,1,0,0,-5],[1,0,0,0,5],[1,1,0,0,-5]];perimeter=orthogonalPerimeter;outlineConnect=0;targetShapes=umlLifeline;portConstraint=eastwest;newEdgeStyle={&quot;curved&quot;:0,&quot;rounded&quot;:0};" parent="RRCfo7z8MlWNH820GbBb-2" vertex="1">
          <mxGeometry x="5" y="306" width="10" height="20" as="geometry" />
        </mxCell>
        <mxCell id="RRCfo7z8MlWNH820GbBb-3" value="" style="shape=umlLifeline;perimeter=lifelinePerimeter;whiteSpace=wrap;html=1;container=1;dropTarget=0;collapsible=0;recursiveResize=0;outlineConnect=0;portConstraint=eastwest;newEdgeStyle={&quot;curved&quot;:0,&quot;rounded&quot;:0};participant=umlActor;" parent="1" vertex="1">
          <mxGeometry x="260" y="264" width="20" height="556" as="geometry" />
        </mxCell>
        <mxCell id="AOPxUWEDdUpyl5ueg-hB-26" value="" style="html=1;points=[[0,0,0,0,5],[0,1,0,0,-5],[1,0,0,0,5],[1,1,0,0,-5]];perimeter=orthogonalPerimeter;outlineConnect=0;targetShapes=umlLifeline;portConstraint=eastwest;newEdgeStyle={&quot;curved&quot;:0,&quot;rounded&quot;:0};" parent="RRCfo7z8MlWNH820GbBb-3" vertex="1">
          <mxGeometry x="5" y="356" width="10" height="20" as="geometry" />
        </mxCell>
        <mxCell id="AOPxUWEDdUpyl5ueg-hB-27" value="" style="html=1;points=[[0,0,0,0,5],[0,1,0,0,-5],[1,0,0,0,5],[1,1,0,0,-5]];perimeter=orthogonalPerimeter;outlineConnect=0;targetShapes=umlLifeline;portConstraint=eastwest;newEdgeStyle={&quot;curved&quot;:0,&quot;rounded&quot;:0};" parent="RRCfo7z8MlWNH820GbBb-3" vertex="1">
          <mxGeometry x="5" y="416" width="10" height="20" as="geometry" />
        </mxCell>
        <mxCell id="AOPxUWEDdUpyl5ueg-hB-28" value="" style="html=1;points=[[0,0,0,0,5],[0,1,0,0,-5],[1,0,0,0,5],[1,1,0,0,-5]];perimeter=orthogonalPerimeter;outlineConnect=0;targetShapes=umlLifeline;portConstraint=eastwest;newEdgeStyle={&quot;curved&quot;:0,&quot;rounded&quot;:0};" parent="RRCfo7z8MlWNH820GbBb-3" vertex="1">
          <mxGeometry x="5" y="496" width="10" height="20" as="geometry" />
        </mxCell>
        <mxCell id="RRCfo7z8MlWNH820GbBb-4" value="Студент" style="text;html=1;align=center;verticalAlign=middle;resizable=0;points=[];autosize=1;strokeColor=none;fillColor=none;" parent="1" vertex="1">
          <mxGeometry x="65" y="238" width="70" height="30" as="geometry" />
        </mxCell>
        <mxCell id="RRCfo7z8MlWNH820GbBb-5" value="Преподаватель" style="text;html=1;align=center;verticalAlign=middle;resizable=0;points=[];autosize=1;strokeColor=none;fillColor=none;" parent="1" vertex="1">
          <mxGeometry x="125" y="238" width="110" height="30" as="geometry" />
        </mxCell>
        <mxCell id="RRCfo7z8MlWNH820GbBb-6" value="Админ" style="text;html=1;align=center;verticalAlign=middle;resizable=0;points=[];autosize=1;strokeColor=none;fillColor=none;" parent="1" vertex="1">
          <mxGeometry x="240" y="238" width="60" height="30" as="geometry" />
        </mxCell>
        <mxCell id="RRCfo7z8MlWNH820GbBb-7" value="Список дисциплин" style="shape=umlLifeline;perimeter=lifelinePerimeter;whiteSpace=wrap;html=1;container=1;dropTarget=0;collapsible=0;recursiveResize=0;outlineConnect=0;portConstraint=eastwest;newEdgeStyle={&quot;curved&quot;:0,&quot;rounded&quot;:0};" parent="1" vertex="1">
          <mxGeometry x="370" y="264" width="100" height="546" as="geometry" />
        </mxCell>
        <mxCell id="AOPxUWEDdUpyl5ueg-hB-25" value="" style="html=1;points=[[0,0,0,0,5],[0,1,0,0,-5],[1,0,0,0,5],[1,1,0,0,-5]];perimeter=orthogonalPerimeter;outlineConnect=0;targetShapes=umlLifeline;portConstraint=eastwest;newEdgeStyle={&quot;curved&quot;:0,&quot;rounded&quot;:0};" parent="RRCfo7z8MlWNH820GbBb-7" vertex="1">
          <mxGeometry x="45" y="360" width="10" height="20" as="geometry" />
        </mxCell>
        <mxCell id="AOPxUWEDdUpyl5ueg-hB-30" value="" style="html=1;points=[[0,0,0,0,5],[0,1,0,0,-5],[1,0,0,0,5],[1,1,0,0,-5]];perimeter=orthogonalPerimeter;outlineConnect=0;targetShapes=umlLifeline;portConstraint=eastwest;newEdgeStyle={&quot;curved&quot;:0,&quot;rounded&quot;:0};" parent="RRCfo7z8MlWNH820GbBb-7" vertex="1">
          <mxGeometry x="45" y="165" width="10" height="20" as="geometry" />
        </mxCell>
        <mxCell id="AOPxUWEDdUpyl5ueg-hB-32" value="" style="html=1;points=[[0,0,0,0,5],[0,1,0,0,-5],[1,0,0,0,5],[1,1,0,0,-5]];perimeter=orthogonalPerimeter;outlineConnect=0;targetShapes=umlLifeline;portConstraint=eastwest;newEdgeStyle={&quot;curved&quot;:0,&quot;rounded&quot;:0};" parent="RRCfo7z8MlWNH820GbBb-7" vertex="1">
          <mxGeometry x="45" y="66" width="10" height="20" as="geometry" />
        </mxCell>
        <mxCell id="Jtv5Nu1IAq33kFyyLnpC-1" value="Список документов" style="shape=umlLifeline;perimeter=lifelinePerimeter;whiteSpace=wrap;html=1;container=1;dropTarget=0;collapsible=0;recursiveResize=0;outlineConnect=0;portConstraint=eastwest;newEdgeStyle={&quot;curved&quot;:0,&quot;rounded&quot;:0};" parent="1" vertex="1">
          <mxGeometry x="550" y="264" width="100" height="546" as="geometry" />
        </mxCell>
        <mxCell id="Jtv5Nu1IAq33kFyyLnpC-32" value="" style="html=1;points=[[0,0,0,0,5],[0,1,0,0,-5],[1,0,0,0,5],[1,1,0,0,-5]];perimeter=orthogonalPerimeter;outlineConnect=0;targetShapes=umlLifeline;portConstraint=eastwest;newEdgeStyle={&quot;curved&quot;:0,&quot;rounded&quot;:0};" parent="Jtv5Nu1IAq33kFyyLnpC-1" vertex="1">
          <mxGeometry x="45" y="70" width="10" height="70" as="geometry" />
        </mxCell>
        <mxCell id="Jtv5Nu1IAq33kFyyLnpC-33" value="" style="html=1;points=[[0,0,0,0,5],[0,1,0,0,-5],[1,0,0,0,5],[1,1,0,0,-5]];perimeter=orthogonalPerimeter;outlineConnect=0;targetShapes=umlLifeline;portConstraint=eastwest;newEdgeStyle={&quot;curved&quot;:0,&quot;rounded&quot;:0};" parent="Jtv5Nu1IAq33kFyyLnpC-1" vertex="1">
          <mxGeometry x="45" y="170" width="10" height="150" as="geometry" />
        </mxCell>
        <mxCell id="AOPxUWEDdUpyl5ueg-hB-5" value="" style="html=1;points=[[0,0,0,0,5],[0,1,0,0,-5],[1,0,0,0,5],[1,1,0,0,-5]];perimeter=orthogonalPerimeter;outlineConnect=0;targetShapes=umlLifeline;portConstraint=eastwest;newEdgeStyle={&quot;curved&quot;:0,&quot;rounded&quot;:0};" parent="Jtv5Nu1IAq33kFyyLnpC-1" vertex="1">
          <mxGeometry x="45" y="366" width="10" height="144" as="geometry" />
        </mxCell>
        <mxCell id="Jtv5Nu1IAq33kFyyLnpC-3" value="" style="endArrow=classic;html=1;rounded=0;" parent="1" edge="1">
          <mxGeometry width="50" height="50" relative="1" as="geometry">
            <mxPoint x="99.5" y="330" as="sourcePoint" />
            <mxPoint x="419.5" y="330" as="targetPoint" />
          </mxGeometry>
        </mxCell>
        <mxCell id="Jtv5Nu1IAq33kFyyLnpC-5" value="" style="endArrow=classic;html=1;rounded=0;" parent="1" edge="1">
          <mxGeometry width="50" height="50" relative="1" as="geometry">
            <mxPoint x="179.5" y="430" as="sourcePoint" />
            <mxPoint x="420" y="430" as="targetPoint" />
          </mxGeometry>
        </mxCell>
        <mxCell id="Jtv5Nu1IAq33kFyyLnpC-7" value="Войти с систему" style="text;html=1;align=center;verticalAlign=middle;resizable=0;points=[];autosize=1;strokeColor=none;fillColor=none;" parent="1" vertex="1">
          <mxGeometry x="90" y="300" width="110" height="30" as="geometry" />
        </mxCell>
        <mxCell id="Jtv5Nu1IAq33kFyyLnpC-8" value="Войти с систему" style="text;html=1;align=center;verticalAlign=middle;resizable=0;points=[];autosize=1;strokeColor=none;fillColor=none;" parent="1" vertex="1">
          <mxGeometry x="170" y="399" width="110" height="30" as="geometry" />
        </mxCell>
        <mxCell id="Jtv5Nu1IAq33kFyyLnpC-11" value="База данных" style="shape=umlLifeline;perimeter=lifelinePerimeter;whiteSpace=wrap;html=1;container=1;dropTarget=0;collapsible=0;recursiveResize=0;outlineConnect=0;portConstraint=eastwest;newEdgeStyle={&quot;curved&quot;:0,&quot;rounded&quot;:0};" parent="1" vertex="1">
          <mxGeometry x="760" y="264" width="100" height="546" as="geometry" />
        </mxCell>
        <mxCell id="AOPxUWEDdUpyl5ueg-hB-9" value="" style="html=1;points=[[0,0,0,0,5],[0,1,0,0,-5],[1,0,0,0,5],[1,1,0,0,-5]];perimeter=orthogonalPerimeter;outlineConnect=0;targetShapes=umlLifeline;portConstraint=eastwest;newEdgeStyle={&quot;curved&quot;:0,&quot;rounded&quot;:0};" parent="Jtv5Nu1IAq33kFyyLnpC-11" vertex="1">
          <mxGeometry x="45" y="92" width="10" height="28" as="geometry" />
        </mxCell>
        <mxCell id="AOPxUWEDdUpyl5ueg-hB-10" value="" style="html=1;points=[[0,0,0,0,5],[0,1,0,0,-5],[1,0,0,0,5],[1,1,0,0,-5]];perimeter=orthogonalPerimeter;outlineConnect=0;targetShapes=umlLifeline;portConstraint=eastwest;newEdgeStyle={&quot;curved&quot;:0,&quot;rounded&quot;:0};" parent="Jtv5Nu1IAq33kFyyLnpC-11" vertex="1">
          <mxGeometry x="45" y="190" width="10" height="40" as="geometry" />
        </mxCell>
        <mxCell id="AOPxUWEDdUpyl5ueg-hB-11" value="" style="html=1;points=[[0,0,0,0,5],[0,1,0,0,-5],[1,0,0,0,5],[1,1,0,0,-5]];perimeter=orthogonalPerimeter;outlineConnect=0;targetShapes=umlLifeline;portConstraint=eastwest;newEdgeStyle={&quot;curved&quot;:0,&quot;rounded&quot;:0};" parent="Jtv5Nu1IAq33kFyyLnpC-11" vertex="1">
          <mxGeometry x="45" y="256" width="10" height="40" as="geometry" />
        </mxCell>
        <mxCell id="AOPxUWEDdUpyl5ueg-hB-13" value="" style="html=1;points=[[0,0,0,0,5],[0,1,0,0,-5],[1,0,0,0,5],[1,1,0,0,-5]];perimeter=orthogonalPerimeter;outlineConnect=0;targetShapes=umlLifeline;portConstraint=eastwest;newEdgeStyle={&quot;curved&quot;:0,&quot;rounded&quot;:0};" parent="Jtv5Nu1IAq33kFyyLnpC-11" vertex="1">
          <mxGeometry x="45" y="376" width="10" height="114" as="geometry" />
        </mxCell>
        <mxCell id="Jtv5Nu1IAq33kFyyLnpC-12" value="" style="endArrow=classic;html=1;rounded=0;" parent="1" edge="1">
          <mxGeometry width="50" height="50" relative="1" as="geometry">
            <mxPoint x="420" y="342" as="sourcePoint" />
            <mxPoint x="600" y="342" as="targetPoint" />
            <Array as="points">
              <mxPoint x="460.5" y="342" />
            </Array>
          </mxGeometry>
        </mxCell>
        <mxCell id="Jtv5Nu1IAq33kFyyLnpC-13" value="Выбрать документ" style="text;html=1;align=center;verticalAlign=middle;resizable=0;points=[];autosize=1;strokeColor=none;fillColor=none;" parent="1" vertex="1">
          <mxGeometry x="440.5" y="320" width="130" height="30" as="geometry" />
        </mxCell>
        <mxCell id="Jtv5Nu1IAq33kFyyLnpC-14" value="" style="endArrow=classic;html=1;rounded=0;entryX=1.004;entryY=0.981;entryDx=0;entryDy=0;entryPerimeter=0;" parent="1" target="Jtv5Nu1IAq33kFyyLnpC-16" edge="1">
          <mxGeometry width="50" height="50" relative="1" as="geometry">
            <mxPoint x="600" y="360" as="sourcePoint" />
            <mxPoint x="810" y="360" as="targetPoint" />
          </mxGeometry>
        </mxCell>
        <mxCell id="Jtv5Nu1IAq33kFyyLnpC-16" value="Запрос на получение документа" style="text;html=1;align=center;verticalAlign=middle;resizable=0;points=[];autosize=1;strokeColor=none;fillColor=none;" parent="1" vertex="1">
          <mxGeometry x="600" y="330" width="200" height="30" as="geometry" />
        </mxCell>
        <mxCell id="Jtv5Nu1IAq33kFyyLnpC-17" value="" style="endArrow=none;dashed=1;html=1;dashPattern=1 3;strokeWidth=2;rounded=0;startArrow=classic;startFill=1;" parent="1" edge="1">
          <mxGeometry width="50" height="50" relative="1" as="geometry">
            <mxPoint x="610" y="385" as="sourcePoint" />
            <mxPoint x="809.5" y="384.5" as="targetPoint" />
          </mxGeometry>
        </mxCell>
        <mxCell id="Jtv5Nu1IAq33kFyyLnpC-19" value="Возвращать документов" style="text;html=1;align=center;verticalAlign=middle;resizable=0;points=[];autosize=1;strokeColor=none;fillColor=none;" parent="1" vertex="1">
          <mxGeometry x="620" y="360" width="160" height="30" as="geometry" />
        </mxCell>
        <mxCell id="Jtv5Nu1IAq33kFyyLnpC-20" value="" style="endArrow=none;dashed=1;html=1;dashPattern=1 3;strokeWidth=2;rounded=0;startArrow=classic;startFill=1;" parent="1" source="RRCfo7z8MlWNH820GbBb-1" edge="1">
          <mxGeometry width="50" height="50" relative="1" as="geometry">
            <mxPoint x="450.5" y="400" as="sourcePoint" />
            <mxPoint x="600" y="400" as="targetPoint" />
          </mxGeometry>
        </mxCell>
        <mxCell id="Jtv5Nu1IAq33kFyyLnpC-22" value="Вернуть список документов" style="text;html=1;align=center;verticalAlign=middle;resizable=0;points=[];autosize=1;strokeColor=none;fillColor=none;" parent="1" vertex="1">
          <mxGeometry x="415.5" y="369" width="180" height="30" as="geometry" />
        </mxCell>
        <mxCell id="Jtv5Nu1IAq33kFyyLnpC-26" value="Выбрать документ" style="text;html=1;align=center;verticalAlign=middle;resizable=0;points=[];autosize=1;strokeColor=none;fillColor=none;" parent="1" vertex="1">
          <mxGeometry x="440.5" y="414" width="130" height="30" as="geometry" />
        </mxCell>
        <mxCell id="Jtv5Nu1IAq33kFyyLnpC-27" value="" style="endArrow=classic;html=1;rounded=0;" parent="1" edge="1">
          <mxGeometry width="50" height="50" relative="1" as="geometry">
            <mxPoint x="420" y="444" as="sourcePoint" />
            <mxPoint x="600" y="444" as="targetPoint" />
            <Array as="points">
              <mxPoint x="460.5" y="444" />
            </Array>
          </mxGeometry>
        </mxCell>
        <mxCell id="Jtv5Nu1IAq33kFyyLnpC-28" value="Запрос на получение документа" style="text;html=1;align=center;verticalAlign=middle;resizable=0;points=[];autosize=1;strokeColor=none;fillColor=none;" parent="1" vertex="1">
          <mxGeometry x="610" y="429" width="200" height="30" as="geometry" />
        </mxCell>
        <mxCell id="Jtv5Nu1IAq33kFyyLnpC-29" value="" style="endArrow=classic;html=1;rounded=0;" parent="1" edge="1">
          <mxGeometry width="50" height="50" relative="1" as="geometry">
            <mxPoint x="600" y="459" as="sourcePoint" />
            <mxPoint x="800" y="460" as="targetPoint" />
          </mxGeometry>
        </mxCell>
        <mxCell id="Jtv5Nu1IAq33kFyyLnpC-30" value="Возвращать документов" style="text;html=1;align=center;verticalAlign=middle;resizable=0;points=[];autosize=1;strokeColor=none;fillColor=none;" parent="1" vertex="1">
          <mxGeometry x="630" y="459" width="160" height="30" as="geometry" />
        </mxCell>
        <mxCell id="Jtv5Nu1IAq33kFyyLnpC-31" value="" style="endArrow=none;dashed=1;html=1;dashPattern=1 3;strokeWidth=2;rounded=0;startArrow=classic;startFill=1;" parent="1" edge="1">
          <mxGeometry width="50" height="50" relative="1" as="geometry">
            <mxPoint x="610" y="489" as="sourcePoint" />
            <mxPoint x="809.5" y="489" as="targetPoint" />
          </mxGeometry>
        </mxCell>
        <mxCell id="Jtv5Nu1IAq33kFyyLnpC-34" value="" style="endArrow=classic;html=1;rounded=0;" parent="1" target="Jtv5Nu1IAq33kFyyLnpC-1" edge="1">
          <mxGeometry width="50" height="50" relative="1" as="geometry">
            <mxPoint x="180" y="510" as="sourcePoint" />
            <mxPoint x="420.5" y="510" as="targetPoint" />
          </mxGeometry>
        </mxCell>
        <mxCell id="Jtv5Nu1IAq33kFyyLnpC-35" value="Редактировать,добавить,скрыть" style="text;html=1;align=center;verticalAlign=middle;resizable=0;points=[];autosize=1;strokeColor=none;fillColor=none;" parent="1" vertex="1">
          <mxGeometry x="170" y="488" width="200" height="30" as="geometry" />
        </mxCell>
        <mxCell id="Jtv5Nu1IAq33kFyyLnpC-36" value="" style="endArrow=classic;html=1;rounded=0;" parent="1" edge="1">
          <mxGeometry width="50" height="50" relative="1" as="geometry">
            <mxPoint x="600" y="530" as="sourcePoint" />
            <mxPoint x="809.5" y="530" as="targetPoint" />
          </mxGeometry>
        </mxCell>
        <mxCell id="Jtv5Nu1IAq33kFyyLnpC-37" value="Запрос на изменение документа" style="text;html=1;align=center;verticalAlign=middle;resizable=0;points=[];autosize=1;strokeColor=none;fillColor=none;" parent="1" vertex="1">
          <mxGeometry x="595" y="508" width="210" height="30" as="geometry" />
        </mxCell>
        <mxCell id="Jtv5Nu1IAq33kFyyLnpC-38" value="Возвращать документов" style="text;html=1;align=center;verticalAlign=middle;resizable=0;points=[];autosize=1;strokeColor=none;fillColor=none;" parent="1" vertex="1">
          <mxGeometry x="630" y="530" width="160" height="30" as="geometry" />
        </mxCell>
        <mxCell id="Jtv5Nu1IAq33kFyyLnpC-39" value="" style="endArrow=none;dashed=1;html=1;dashPattern=1 3;strokeWidth=2;rounded=0;startArrow=classic;startFill=1;" parent="1" target="Jtv5Nu1IAq33kFyyLnpC-11" edge="1">
          <mxGeometry width="50" height="50" relative="1" as="geometry">
            <mxPoint x="610" y="560" as="sourcePoint" />
            <mxPoint x="500" y="510" as="targetPoint" />
          </mxGeometry>
        </mxCell>
        <mxCell id="Jtv5Nu1IAq33kFyyLnpC-40" value="" style="endArrow=none;dashed=1;html=1;dashPattern=1 3;strokeWidth=2;rounded=0;exitX=0.507;exitY=0.815;exitDx=0;exitDy=0;exitPerimeter=0;startArrow=classic;startFill=1;" parent="1" edge="1">
          <mxGeometry width="50" height="50" relative="1" as="geometry">
            <mxPoint x="180.6400000000001" y="579.9999999999999" as="sourcePoint" />
            <mxPoint x="590" y="580" as="targetPoint" />
          </mxGeometry>
        </mxCell>
        <mxCell id="Jtv5Nu1IAq33kFyyLnpC-41" value="Вернуть обновленный список документа" style="text;html=1;align=center;verticalAlign=middle;resizable=0;points=[];autosize=1;strokeColor=none;fillColor=none;" parent="1" vertex="1">
          <mxGeometry x="170" y="548" width="250" height="30" as="geometry" />
        </mxCell>
        <mxCell id="AOPxUWEDdUpyl5ueg-hB-1" value="" style="endArrow=classic;html=1;rounded=0;" parent="1" edge="1">
          <mxGeometry width="50" height="50" relative="1" as="geometry">
            <mxPoint x="270" y="630" as="sourcePoint" />
            <mxPoint x="420" y="630" as="targetPoint" />
          </mxGeometry>
        </mxCell>
        <mxCell id="AOPxUWEDdUpyl5ueg-hB-2" value="Войти в систему" style="text;html=1;align=center;verticalAlign=middle;resizable=0;points=[];autosize=1;strokeColor=none;fillColor=none;" parent="1" vertex="1">
          <mxGeometry x="260" y="600" width="120" height="30" as="geometry" />
        </mxCell>
        <mxCell id="AOPxUWEDdUpyl5ueg-hB-3" value="Выбрать документ" style="text;html=1;align=center;verticalAlign=middle;resizable=0;points=[];autosize=1;strokeColor=none;fillColor=none;" parent="1" vertex="1">
          <mxGeometry x="440.5" y="610" width="130" height="30" as="geometry" />
        </mxCell>
        <mxCell id="AOPxUWEDdUpyl5ueg-hB-4" value="" style="endArrow=classic;html=1;rounded=0;" parent="1" source="RRCfo7z8MlWNH820GbBb-7" edge="1">
          <mxGeometry width="50" height="50" relative="1" as="geometry">
            <mxPoint x="430" y="640" as="sourcePoint" />
            <mxPoint x="595.5" y="640" as="targetPoint" />
          </mxGeometry>
        </mxCell>
        <mxCell id="AOPxUWEDdUpyl5ueg-hB-7" value="Запрос на получение документа" style="text;html=1;align=center;verticalAlign=middle;resizable=0;points=[];autosize=1;strokeColor=none;fillColor=none;" parent="1" vertex="1">
          <mxGeometry x="600" y="620" width="200" height="30" as="geometry" />
        </mxCell>
        <mxCell id="AOPxUWEDdUpyl5ueg-hB-8" value="" style="endArrow=classic;html=1;rounded=0;" parent="1" edge="1">
          <mxGeometry width="50" height="50" relative="1" as="geometry">
            <mxPoint x="610" y="650" as="sourcePoint" />
            <mxPoint x="805" y="650" as="targetPoint" />
          </mxGeometry>
        </mxCell>
        <mxCell id="AOPxUWEDdUpyl5ueg-hB-12" value="Возвращать документов" style="text;html=1;align=center;verticalAlign=middle;resizable=0;points=[];autosize=1;strokeColor=none;fillColor=none;" parent="1" vertex="1">
          <mxGeometry x="630" y="650" width="160" height="30" as="geometry" />
        </mxCell>
        <mxCell id="AOPxUWEDdUpyl5ueg-hB-14" value="" style="endArrow=none;dashed=1;html=1;dashPattern=1 3;strokeWidth=2;rounded=0;startArrow=classic;startFill=1;" parent="1" edge="1">
          <mxGeometry width="50" height="50" relative="1" as="geometry">
            <mxPoint x="610" y="680" as="sourcePoint" />
            <mxPoint x="810" y="680" as="targetPoint" />
          </mxGeometry>
        </mxCell>
        <mxCell id="AOPxUWEDdUpyl5ueg-hB-15" value="" style="endArrow=classic;html=1;rounded=0;" parent="1" source="RRCfo7z8MlWNH820GbBb-3" edge="1">
          <mxGeometry width="50" height="50" relative="1" as="geometry">
            <mxPoint x="180" y="690" as="sourcePoint" />
            <mxPoint x="590" y="690" as="targetPoint" />
          </mxGeometry>
        </mxCell>
        <mxCell id="AOPxUWEDdUpyl5ueg-hB-16" value="Редактировать,добавить,удалить,поделиться" style="text;html=1;align=center;verticalAlign=middle;resizable=0;points=[];autosize=1;strokeColor=none;fillColor=none;" parent="1" vertex="1">
          <mxGeometry x="260" y="660" width="280" height="30" as="geometry" />
        </mxCell>
        <mxCell id="AOPxUWEDdUpyl5ueg-hB-17" value="Запрос на изменение документа" style="text;html=1;align=center;verticalAlign=middle;resizable=0;points=[];autosize=1;strokeColor=none;fillColor=none;" parent="1" vertex="1">
          <mxGeometry x="595.5" y="690" width="210" height="30" as="geometry" />
        </mxCell>
        <mxCell id="AOPxUWEDdUpyl5ueg-hB-18" value="" style="endArrow=classic;html=1;rounded=0;" parent="1" edge="1">
          <mxGeometry width="50" height="50" relative="1" as="geometry">
            <mxPoint x="610" y="720" as="sourcePoint" />
            <mxPoint x="810" y="720" as="targetPoint" />
          </mxGeometry>
        </mxCell>
        <mxCell id="AOPxUWEDdUpyl5ueg-hB-19" value="" style="endArrow=none;dashed=1;html=1;dashPattern=1 3;strokeWidth=2;rounded=0;startArrow=classic;startFill=1;" parent="1" edge="1">
          <mxGeometry width="50" height="50" relative="1" as="geometry">
            <mxPoint x="610" y="750" as="sourcePoint" />
            <mxPoint x="810" y="750" as="targetPoint" />
          </mxGeometry>
        </mxCell>
        <mxCell id="AOPxUWEDdUpyl5ueg-hB-20" value="Возвращать документов" style="text;html=1;align=center;verticalAlign=middle;resizable=0;points=[];autosize=1;strokeColor=none;fillColor=none;" parent="1" vertex="1">
          <mxGeometry x="630" y="720" width="160" height="30" as="geometry" />
        </mxCell>
        <mxCell id="AOPxUWEDdUpyl5ueg-hB-22" value="" style="endArrow=none;dashed=1;html=1;dashPattern=1 3;strokeWidth=2;rounded=0;startArrow=classic;startFill=1;" parent="1" source="RRCfo7z8MlWNH820GbBb-3" edge="1">
          <mxGeometry width="50" height="50" relative="1" as="geometry">
            <mxPoint x="445.5" y="790" as="sourcePoint" />
            <mxPoint x="595" y="770" as="targetPoint" />
            <Array as="points">
              <mxPoint x="446" y="770" />
              <mxPoint x="465.5" y="770" />
            </Array>
          </mxGeometry>
        </mxCell>
        <mxCell id="AOPxUWEDdUpyl5ueg-hB-23" value="Вернуть обновленный список документа" style="text;html=1;align=center;verticalAlign=middle;resizable=0;points=[];autosize=1;strokeColor=none;fillColor=none;" parent="1" vertex="1">
          <mxGeometry x="260" y="740" width="250" height="30" as="geometry" />
        </mxCell>
        <mxCell id="AOPxUWEDdUpyl5ueg-hB-33" value="" style="html=1;points=[[0,0,0,0,5],[0,1,0,0,-5],[1,0,0,0,5],[1,1,0,0,-5]];perimeter=orthogonalPerimeter;outlineConnect=0;targetShapes=umlLifeline;portConstraint=eastwest;newEdgeStyle={&quot;curved&quot;:0,&quot;rounded&quot;:0};" parent="1" vertex="1">
          <mxGeometry x="95" y="320" width="10" height="20" as="geometry" />
        </mxCell>
      </root>
    </mxGraphModel>
  </diagram>
  <diagram id="Tv1YD5X4p97DsOPYUQIh" name="Страница — 3">
    <mxGraphModel dx="929" dy="641" grid="1" gridSize="10" guides="1" tooltips="1" connect="1" arrows="1" fold="1" page="1" pageScale="1" pageWidth="1169" pageHeight="827" math="0" shadow="0">
      <root>
        <mxCell id="0" />
        <mxCell id="1" parent="0" />
        <mxCell id="PlprCJ0bnxJGtraV3aJV-1" value="" style="shape=umlLifeline;perimeter=lifelinePerimeter;whiteSpace=wrap;html=1;container=1;dropTarget=0;collapsible=0;recursiveResize=0;outlineConnect=0;portConstraint=eastwest;newEdgeStyle={&quot;curved&quot;:0,&quot;rounded&quot;:0};participant=umlActor;" vertex="1" parent="1">
          <mxGeometry x="65" y="70" width="20" height="380" as="geometry" />
        </mxCell>
        <mxCell id="PlprCJ0bnxJGtraV3aJV-2" value="" style="html=1;points=[[0,0,0,0,5],[0,1,0,0,-5],[1,0,0,0,5],[1,1,0,0,-5]];perimeter=orthogonalPerimeter;outlineConnect=0;targetShapes=umlLifeline;portConstraint=eastwest;newEdgeStyle={&quot;curved&quot;:0,&quot;rounded&quot;:0};" vertex="1" parent="PlprCJ0bnxJGtraV3aJV-1">
          <mxGeometry x="5" y="60" width="10" height="290" as="geometry" />
        </mxCell>
        <mxCell id="PlprCJ0bnxJGtraV3aJV-3" value="Страница долгов" style="shape=umlLifeline;perimeter=lifelinePerimeter;whiteSpace=wrap;html=1;container=1;dropTarget=0;collapsible=0;recursiveResize=0;outlineConnect=0;portConstraint=eastwest;newEdgeStyle={&quot;curved&quot;:0,&quot;rounded&quot;:0};" vertex="1" parent="1">
          <mxGeometry x="315" y="60" width="100" height="400" as="geometry" />
        </mxCell>
        <mxCell id="PlprCJ0bnxJGtraV3aJV-4" value="" style="html=1;points=[[0,0,0,0,5],[0,1,0,0,-5],[1,0,0,0,5],[1,1,0,0,-5]];perimeter=orthogonalPerimeter;outlineConnect=0;targetShapes=umlLifeline;portConstraint=eastwest;newEdgeStyle={&quot;curved&quot;:0,&quot;rounded&quot;:0};" vertex="1" parent="PlprCJ0bnxJGtraV3aJV-3">
          <mxGeometry x="45" y="70" width="10" height="284" as="geometry" />
        </mxCell>
        <mxCell id="PlprCJ0bnxJGtraV3aJV-5" value="" style="endArrow=classic;html=1;rounded=0;" edge="1" parent="1">
          <mxGeometry width="50" height="50" relative="1" as="geometry">
            <mxPoint x="74.5" y="130" as="sourcePoint" />
            <mxPoint x="364.5" y="130" as="targetPoint" />
          </mxGeometry>
        </mxCell>
        <mxCell id="PlprCJ0bnxJGtraV3aJV-6" value="Войти в систему" style="text;html=1;align=center;verticalAlign=middle;resizable=0;points=[];autosize=1;strokeColor=none;fillColor=none;" vertex="1" parent="1">
          <mxGeometry x="155" y="98" width="120" height="30" as="geometry" />
        </mxCell>
        <mxCell id="PlprCJ0bnxJGtraV3aJV-7" value="" style="endArrow=classic;dashed=1;html=1;dashPattern=1 3;strokeWidth=2;rounded=0;endFill=1;" edge="1" parent="1">
          <mxGeometry width="50" height="50" relative="1" as="geometry">
            <mxPoint x="365.5" y="200" as="sourcePoint" />
            <mxPoint x="74.5" y="200" as="targetPoint" />
          </mxGeometry>
        </mxCell>
        <mxCell id="PlprCJ0bnxJGtraV3aJV-8" value="Список долгов" style="text;html=1;align=center;verticalAlign=middle;resizable=0;points=[];autosize=1;strokeColor=none;fillColor=none;" vertex="1" parent="1">
          <mxGeometry x="155" y="170" width="100" height="30" as="geometry" />
        </mxCell>
        <mxCell id="PlprCJ0bnxJGtraV3aJV-9" value="База данных" style="shape=umlLifeline;perimeter=lifelinePerimeter;whiteSpace=wrap;html=1;container=1;dropTarget=0;collapsible=0;recursiveResize=0;outlineConnect=0;portConstraint=eastwest;newEdgeStyle={&quot;curved&quot;:0,&quot;rounded&quot;:0};" vertex="1" parent="1">
          <mxGeometry x="520" y="60" width="225" height="400" as="geometry" />
        </mxCell>
        <mxCell id="PlprCJ0bnxJGtraV3aJV-10" value="" style="html=1;points=[[0,0,0,0,5],[0,1,0,0,-5],[1,0,0,0,5],[1,1,0,0,-5]];perimeter=orthogonalPerimeter;outlineConnect=0;targetShapes=umlLifeline;portConstraint=eastwest;newEdgeStyle={&quot;curved&quot;:0,&quot;rounded&quot;:0};" vertex="1" parent="PlprCJ0bnxJGtraV3aJV-9">
          <mxGeometry x="107.5" y="80" width="10" height="252" as="geometry" />
        </mxCell>
        <mxCell id="PlprCJ0bnxJGtraV3aJV-11" value="Получить новый список" style="text;html=1;align=center;verticalAlign=middle;resizable=0;points=[];autosize=1;strokeColor=none;fillColor=none;" vertex="1" parent="PlprCJ0bnxJGtraV3aJV-9">
          <mxGeometry x="-115" y="270" width="160" height="30" as="geometry" />
        </mxCell>
        <mxCell id="PlprCJ0bnxJGtraV3aJV-12" value="" style="endArrow=classic;html=1;rounded=0;" edge="1" parent="1">
          <mxGeometry width="50" height="50" relative="1" as="geometry">
            <mxPoint x="365" y="142.5" as="sourcePoint" />
            <mxPoint x="635" y="143" as="targetPoint" />
          </mxGeometry>
        </mxCell>
        <mxCell id="PlprCJ0bnxJGtraV3aJV-13" value="" style="endArrow=classic;dashed=1;html=1;dashPattern=1 3;strokeWidth=2;rounded=0;endFill=1;" edge="1" parent="1">
          <mxGeometry width="50" height="50" relative="1" as="geometry">
            <mxPoint x="635" y="170" as="sourcePoint" />
            <mxPoint x="365" y="170" as="targetPoint" />
          </mxGeometry>
        </mxCell>
        <mxCell id="PlprCJ0bnxJGtraV3aJV-14" value="Получить список" style="text;html=1;align=center;verticalAlign=middle;resizable=0;points=[];autosize=1;strokeColor=none;fillColor=none;" vertex="1" parent="1">
          <mxGeometry x="415" y="108" width="120" height="30" as="geometry" />
        </mxCell>
        <mxCell id="PlprCJ0bnxJGtraV3aJV-15" value="Возвращать список долгов студента&amp;nbsp;" style="text;html=1;align=center;verticalAlign=middle;resizable=0;points=[];autosize=1;strokeColor=none;fillColor=none;" vertex="1" parent="1">
          <mxGeometry x="385" y="140" width="230" height="30" as="geometry" />
        </mxCell>
        <mxCell id="PlprCJ0bnxJGtraV3aJV-16" value="" style="endArrow=classic;html=1;rounded=0;" edge="1" parent="1" target="PlprCJ0bnxJGtraV3aJV-18">
          <mxGeometry width="50" height="50" relative="1" as="geometry">
            <mxPoint x="75" y="260" as="sourcePoint" />
            <mxPoint x="125" y="210" as="targetPoint" />
          </mxGeometry>
        </mxCell>
        <mxCell id="PlprCJ0bnxJGtraV3aJV-17" value="Оплатить долга" style="text;html=1;align=center;verticalAlign=middle;resizable=0;points=[];autosize=1;strokeColor=none;fillColor=none;" vertex="1" parent="1">
          <mxGeometry x="435" y="228" width="110" height="30" as="geometry" />
        </mxCell>
        <mxCell id="PlprCJ0bnxJGtraV3aJV-18" value="Банк" style="shape=umlLifeline;perimeter=lifelinePerimeter;whiteSpace=wrap;html=1;container=1;dropTarget=0;collapsible=0;recursiveResize=0;outlineConnect=0;portConstraint=eastwest;newEdgeStyle={&quot;curved&quot;:0,&quot;rounded&quot;:0};" vertex="1" parent="1">
          <mxGeometry x="765" y="60" width="100" height="390" as="geometry" />
        </mxCell>
        <mxCell id="PlprCJ0bnxJGtraV3aJV-19" value="" style="html=1;points=[[0,0,0,0,5],[0,1,0,0,-5],[1,0,0,0,5],[1,1,0,0,-5]];perimeter=orthogonalPerimeter;outlineConnect=0;targetShapes=umlLifeline;portConstraint=eastwest;newEdgeStyle={&quot;curved&quot;:0,&quot;rounded&quot;:0};" vertex="1" parent="PlprCJ0bnxJGtraV3aJV-18">
          <mxGeometry x="45" y="190" width="10" height="50" as="geometry" />
        </mxCell>
        <mxCell id="PlprCJ0bnxJGtraV3aJV-20" value="" style="endArrow=none;dashed=1;html=1;dashPattern=1 3;strokeWidth=2;rounded=0;endFill=0;startArrow=classic;startFill=1;" edge="1" parent="1" source="PlprCJ0bnxJGtraV3aJV-9">
          <mxGeometry width="50" height="50" relative="1" as="geometry">
            <mxPoint x="375" y="290" as="sourcePoint" />
            <mxPoint x="814.5" y="290" as="targetPoint" />
          </mxGeometry>
        </mxCell>
        <mxCell id="PlprCJ0bnxJGtraV3aJV-21" value="Транзакция прошла" style="text;html=1;align=center;verticalAlign=middle;resizable=0;points=[];autosize=1;strokeColor=none;fillColor=none;" vertex="1" parent="1">
          <mxGeometry x="660" y="258" width="130" height="30" as="geometry" />
        </mxCell>
        <mxCell id="PlprCJ0bnxJGtraV3aJV-22" value="" style="endArrow=none;dashed=1;html=1;dashPattern=1 3;strokeWidth=2;rounded=0;startArrow=classic;startFill=1;" edge="1" parent="1">
          <mxGeometry width="50" height="50" relative="1" as="geometry">
            <mxPoint x="370.25" y="310" as="sourcePoint" />
            <mxPoint x="629.75" y="310" as="targetPoint" />
          </mxGeometry>
        </mxCell>
        <mxCell id="PlprCJ0bnxJGtraV3aJV-23" value="Стереть долг" style="text;html=1;align=center;verticalAlign=middle;resizable=0;points=[];autosize=1;strokeColor=none;fillColor=none;" vertex="1" parent="1">
          <mxGeometry x="440" y="280" width="100" height="30" as="geometry" />
        </mxCell>
        <mxCell id="PlprCJ0bnxJGtraV3aJV-24" value="" style="endArrow=none;dashed=1;html=1;dashPattern=1 3;strokeWidth=2;rounded=0;startArrow=classic;startFill=1;" edge="1" parent="1">
          <mxGeometry width="50" height="50" relative="1" as="geometry">
            <mxPoint x="74.5" y="330" as="sourcePoint" />
            <mxPoint x="365" y="330" as="targetPoint" />
          </mxGeometry>
        </mxCell>
        <mxCell id="PlprCJ0bnxJGtraV3aJV-25" value="Долг оплачено" style="text;html=1;align=center;verticalAlign=middle;resizable=0;points=[];autosize=1;strokeColor=none;fillColor=none;" vertex="1" parent="1">
          <mxGeometry x="160" y="298" width="110" height="30" as="geometry" />
        </mxCell>
        <mxCell id="PlprCJ0bnxJGtraV3aJV-26" value="" style="endArrow=classic;html=1;rounded=0;" edge="1" parent="1">
          <mxGeometry width="50" height="50" relative="1" as="geometry">
            <mxPoint x="365" y="360" as="sourcePoint" />
            <mxPoint x="635" y="360.5" as="targetPoint" />
          </mxGeometry>
        </mxCell>
        <mxCell id="PlprCJ0bnxJGtraV3aJV-27" value="Возвращать список долгов студента&amp;nbsp;" style="text;html=1;align=center;verticalAlign=middle;resizable=0;points=[];autosize=1;strokeColor=none;fillColor=none;" vertex="1" parent="1">
          <mxGeometry x="385" y="358" width="230" height="30" as="geometry" />
        </mxCell>
        <mxCell id="PlprCJ0bnxJGtraV3aJV-28" value="" style="endArrow=classic;dashed=1;html=1;dashPattern=1 3;strokeWidth=2;rounded=0;endFill=1;" edge="1" parent="1">
          <mxGeometry width="50" height="50" relative="1" as="geometry">
            <mxPoint x="635" y="388" as="sourcePoint" />
            <mxPoint x="365" y="388" as="targetPoint" />
          </mxGeometry>
        </mxCell>
        <mxCell id="PlprCJ0bnxJGtraV3aJV-29" value="" style="endArrow=classic;dashed=1;html=1;dashPattern=1 3;strokeWidth=2;rounded=0;endFill=1;" edge="1" parent="1">
          <mxGeometry width="50" height="50" relative="1" as="geometry">
            <mxPoint x="356" y="413" as="sourcePoint" />
            <mxPoint x="75" y="413" as="targetPoint" />
          </mxGeometry>
        </mxCell>
        <mxCell id="PlprCJ0bnxJGtraV3aJV-30" value="Выйти из системы" style="text;html=1;align=center;verticalAlign=middle;resizable=0;points=[];autosize=1;strokeColor=none;fillColor=none;" vertex="1" parent="1">
          <mxGeometry x="130" y="380" width="130" height="30" as="geometry" />
        </mxCell>
      </root>
    </mxGraphModel>
  </diagram>
</mxfile>
